<?xml version="1.0" encoding="UTF-8"?> <!-- Generator: Adobe Illustrator 24.0.0, SVG Export Plug-In . SVG Version: 6.00 Build 0) --> <svg xmlns="http://www.w3.org/2000/svg" xmlns:xlink="http://www.w3.org/1999/xlink" version="1.1" id="Layer_1" x="0px" y="0px" viewBox="0 0 188 40" style="enable-background:new 0 0 188 40;" xml:space="preserve"> <style type="text/css"> .st0{fill:#767886;} .st1{fill:#3C3F4F;} </style> <title>FB85B0B5-270B-4FD7-819F-4BC7606CD83D</title> <g id="UI-Kit"> <g id="Branding_UI-Kit_v1.3" transform="translate(-140.000000, -385.000000)"> <g id="Logo_Planable_Greyscale-Dark-Horizontal" transform="translate(140.000000, 385.000000)"> <path id="Path" class="st0" d="M10.9,39.9c0.4-0.8,1.7-2.9,2.9-5c1.1-1.9,2.2-3.8,2.6-4.4c1.3-2.2,4.4-2.2,6.7-2.1 c0.4,0,0.7,0,1,0l2.2,0l-5.9,10.1c-0.5,0.8-1.3,1.3-2.2,1.3l-2.9,0.1H10.9z"></path> <path id="Path_1_" class="st1" d="M35,25.9l3-5.1l-5.6,0l0,0h-4.2c-6.7,0-8.8,4.1-10.3,6.8c-0.2,0.4-0.4,0.7-0.5,1 c-0.6,1-1,1.8-1,1.8c1.3-2.2,4.4-2.2,6.7-2.1c0.4,0,0.7,0,1,0l2.2,0l4.5,0C32.5,28.3,34.1,27.4,35,25.9z"></path> <path id="Path_2_" class="st0" d="M8.1,0.1c0.4,0.8,1.7,2.9,2.9,5c1.1,1.9,2.2,3.8,2.5,4.4c1.3,2.2-0.3,4.9-1.5,6.9 c-0.2,0.3-0.4,0.6-0.5,0.9l-1.1,1.9L4.5,9c-0.5-0.8-0.5-1.8,0-2.6l1.4-2.5L8.1,0.1z"></path> <path id="Path_3_" class="st1" d="M15.2,12.3c-0.2-0.3-0.4-0.7-0.6-1c-0.6-1-1.1-1.8-1.1-1.8c1.3,2.2-0.3,4.9-1.5,6.9 c-0.2,0.3-0.4,0.6-0.5,0.9l-1.1,1.9L8.2,23c-0.9,1.5-0.9,3.4,0,4.9l2.9,5.1l2.8-4.9l2.1-3.6C19.3,18.8,16.9,15.1,15.2,12.3z"></path> <path id="Path_4_" class="st0" d="M43.8,18.2c-0.9,0-3.3,0-5.7,0c-2.2,0-4.4,0-5.1,0c-2.6,0-4.1-2.8-5.2-4.8 c-0.2-0.3-0.3-0.6-0.5-0.9l-1.1-1.9h11.7c0.9,0,1.8,0.5,2.3,1.3l1.5,2.5L43.8,18.2z"></path> <path id="Path_5_" class="st1" d="M19.6,4.3l-5.9,0l2.8,4.9l2.1,3.6c3.4,5.9,8,5.4,11,5.4c0.4,0,0.8,0,1.2,0c1.2,0,2.1,0,2.1,0 c-2.6,0-4.1-2.8-5.2-4.8c-0.2-0.3-0.3-0.6-0.5-0.9l-1.1-1.9l-2.3-3.9C23,5.3,21.4,4.4,19.6,4.3z"></path> <path id="Shape" class="st1" d="M57.7,10.8h-4.6v23.3h4.6v-8c0.9,1.1,2.7,2.1,5.2,2.1c5.4,0,8.6-4,8.6-8.9c0-4.9-3.2-8.9-8.6-8.9 c-2.4,0-4.5,1.1-5.2,2.1V10.8z M57.5,19.3c0-3,1.8-4.8,4.7-4.8c2.9,0,4.7,2.1,4.7,4.8c0,2.8-1.7,4.8-4.7,4.8 C59.3,24.2,57.5,22.2,57.5,19.3z"></path> <polygon id="Path_8_" class="st1" points="73.3,27.9 77.9,27.9 77.9,4.6 73.3,4.6 "></polygon> <path id="Shape_1_" class="st1" d="M93.3,27.9h4.6V10.8h-4.6v1.8c-0.9-1.1-2.7-2.1-5.2-2.1c-5.4,0-8.6,4-8.6,8.9 c0,4.9,3.2,8.9,8.6,8.9c2.4,0,4.5-1.1,5.2-2.1V27.9z M93.5,19.3c0,3-1.8,4.8-4.7,4.8c-2.9,0-4.7-2.1-4.7-4.8 c0-2.8,1.7-4.8,4.7-4.8C91.7,14.5,93.5,16.5,93.5,19.3z"></path> <path id="Path_9_" class="st1" d="M109.7,10.5c-1.5,0-3.4,0.7-4.6,1.8v-1.5h-4.6v17.1h4.6v-9c-0.1-3.7,2-4.5,3.3-4.5 c1.8,0,3.3,0.8,3.3,3.4v10.1h4.8V17.8C116.4,13.3,114.6,10.5,109.7,10.5z"></path> <path id="Shape_2_" class="st1" d="M131.9,27.9h4.6V10.8h-4.6v1.8c-0.9-1.1-2.7-2.1-5.2-2.1c-5.4,0-8.6,4-8.6,8.9 c0,4.9,3.2,8.9,8.6,8.9c2.4,0,4.5-1.1,5.2-2.1V27.9z M132.1,19.3c0,3-1.8,4.8-4.7,4.8c-2.9,0-4.7-2.1-4.7-4.8 c0-2.8,1.7-4.8,4.7-4.8C130.3,14.5,132.1,16.5,132.1,19.3z"></path> <path id="Shape_3_" class="st1" d="M143.7,27.9v-1.7c0.7,1,2.8,2.1,5.2,2.1c5.4,0,8.6-4,8.6-8.9c0-4.9-3.2-8.9-8.6-8.9 c-2.5,0-4.3,1-5.2,2.1v-8h-4.6v23.3H143.7z M143.5,19.3c0-2.8,1.8-4.8,4.7-4.8c3,0,4.7,2.1,4.7,4.8c0,2.7-1.8,4.8-4.7,4.8 C145.3,24.2,143.5,22.3,143.5,19.3z"></path> <polygon id="Path_10_" class="st1" points="159.3,27.9 164,27.9 164,4.6 159.3,4.6 "></polygon> <path id="Shape_4_" class="st1" d="M174.9,28.3c5,0,7.3-3,8-4l-3.6-2.1c-0.5,0.6-1.8,2-4.4,2c-0.9,0-4.1-0.3-4.7-3.1h13.5 c0,0,0.1-0.8,0.1-2.1c-0.2-5.5-4.5-8.5-8.9-8.5c-3.2,0-9.3,1.9-9.3,8.9S171.5,28.3,174.9,28.3z M174.8,14.6c2.3,0,3.9,1.7,4,3.3 h-8.6C170.5,16.1,172.2,14.6,174.8,14.6z"></path> </g> </g> </g> </svg> 