<?xml version="1.0" encoding="UTF-8"?> <!-- Generator: Adobe Illustrator 24.0.0, SVG Export Plug-In . SVG Version: 6.00 Build 0) --> <svg xmlns="http://www.w3.org/2000/svg" xmlns:xlink="http://www.w3.org/1999/xlink" version="1.1" id="Layer_1" x="0px" y="0px" viewBox="0 0 188 40" style="enable-background:new 0 0 188 40;" xml:space="preserve"> <style type="text/css"> .st0{fill:#FECE6A;} .st1{fill:#FEAE06;} .st2{fill:#89E5B8;} .st3{fill:#3BD388;} .st4{fill:#BFB0FB;} .st5{fill:#947BF9;} .st6{fill:#3C3F4F;} </style> <g> <g> <path class="st0" d="M12.3,39.5c0.4-0.8,1.6-2.8,2.8-4.9c1.1-1.9,2.2-3.7,2.5-4.3c1.3-2.2,4.3-2.1,6.6-2.1c0.3,0,0.7,0,1,0l2.1,0 l-5.1,8.8c-0.9,1.5-2.4,2.4-4.1,2.5l-1.6,0L12.3,39.5L12.3,39.5z"></path> <path class="st1" d="M36,25.8l2.9-5l-5.5,0l0,0h-4.1c-6.6,0-8.7,4-10.1,6.7c-0.2,0.4-0.4,0.7-0.5,1c-0.6,1-1,1.8-1,1.8 c1.3-2.2,4.3-2.1,6.6-2.1c0.3,0,0.7,0,1,0l2.1,0l4.4,0C33.5,28.2,35.1,27.3,36,25.8z"></path> <path class="st2" d="M9.5,0.4c0.4,0.8,1.6,2.8,2.8,4.9c1.1,1.9,2.1,3.8,2.5,4.4c1.3,2.2-0.3,4.8-1.5,6.8c-0.2,0.3-0.3,0.6-0.5,0.8 l-1,1.8l-5.1-8.8C5.9,8.8,5.8,7,6.7,5.5l0.7-1.4L9.5,0.4z"></path> <path class="st3" d="M16.5,12.4c-0.2-0.3-0.4-0.7-0.6-1c-0.6-1-1.1-1.8-1.1-1.8c1.3,2.2-0.3,4.8-1.5,6.8c-0.2,0.3-0.3,0.6-0.5,0.8 l-1,1.8L9.6,23c-0.9,1.5-0.9,3.3,0,4.8l2.9,5l2.7-4.8l2.1-3.5C20.5,18.8,18.2,15.1,16.5,12.4z"></path> <path class="st4" d="M44.6,18.2c-0.9,0-3.3,0-5.6,0c-2.2,0-4.3,0-5,0c-2.5,0-4-2.7-5.1-4.7c-0.2-0.3-0.3-0.6-0.5-0.8l-1.1-1.8 h10.2c1.7,0,3.3,0.9,4.2,2.4l0.8,1.3L44.6,18.2z"></path> <path class="st5" d="M20.9,4.6l-5.8,0l2.8,4.8l2.1,3.5c3.3,5.8,7.8,5.3,10.8,5.3c0.4,0,0.8,0,1.1,0c1.2,0,2.1,0,2.1,0 c-2.5,0-4-2.7-5.1-4.7c-0.2-0.3-0.3-0.6-0.5-0.8l-1.1-1.8L25.1,7C24.2,5.6,22.6,4.6,20.9,4.6z"></path> </g> <path class="st6" d="M58.2,11h-4.5v22.9h4.5V26c0.9,1.1,2.7,2.1,5.1,2.1c5.3,0,8.4-3.9,8.4-8.8s-3.1-8.8-8.4-8.8 c-2.4,0-4.4,1.1-5.1,2V11z M58,19.3c0-2.9,1.8-4.7,4.6-4.7c2.8,0,4.6,2.1,4.6,4.7c0,2.8-1.7,4.8-4.6,4.8C59.8,24.1,58,22.1,58,19.3 z"></path> <path class="st6" d="M73.5,27.7h4.6V4.9h-4.6V27.7z"></path> <path class="st6" d="M93.2,27.7h4.5V11h-4.5v1.7c-0.9-1.1-2.7-2.1-5.1-2.1c-5.3,0-8.4,3.9-8.4,8.8s3.1,8.8,8.4,8.8 c2.4,0,4.4-1.1,5.1-2V27.7z M93.4,19.3c0,2.9-1.8,4.7-4.6,4.7c-2.8,0-4.6-2.1-4.6-4.7c0-2.8,1.7-4.8,4.6-4.8 C91.6,14.6,93.4,16.6,93.4,19.3z"></path> <path class="st6" d="M109.2,10.6c-1.5,0-3.4,0.7-4.5,1.8V11h-4.5v16.8h4.5v-8.9c-0.1-3.7,2-4.4,3.2-4.4c1.8,0,3.2,0.8,3.2,3.4v9.9 h4.7v-9.9C115.8,13.5,114.1,10.6,109.2,10.6z"></path> <path class="st6" d="M131.1,27.7h4.5V11h-4.5v1.7c-0.9-1.1-2.7-2.1-5.1-2.1c-5.3,0-8.4,3.9-8.4,8.8s3.1,8.8,8.4,8.8 c2.4,0,4.4-1.1,5.1-2V27.7z M131.2,19.3c0,2.9-1.8,4.7-4.6,4.7c-2.8,0-4.6-2.1-4.6-4.7c0-2.8,1.7-4.8,4.6-4.8 C129.5,14.6,131.2,16.6,131.2,19.3z"></path> <path class="st6" d="M142.6,27.7v-1.7c0.7,0.9,2.7,2,5.1,2c5.3,0,8.4-3.9,8.4-8.8s-3.1-8.8-8.4-8.8c-2.4,0-4.2,1-5.1,2.1V4.9h-4.5 v22.9H142.6z M142.4,19.3c0-2.8,1.8-4.8,4.6-4.8c2.9,0,4.6,2,4.6,4.8c0,2.7-1.8,4.7-4.6,4.7C144.2,24.1,142.4,22.3,142.4,19.3z"></path> <path class="st6" d="M157.9,27.7h4.6V4.9h-4.6V27.7z"></path> <path class="st6" d="M173.2,28.2c4.9,0,7.2-3,7.8-3.9l-3.5-2c-0.5,0.6-1.8,2-4.3,2c-0.9,0-4-0.3-4.6-3.1h13.2c0,0,0.1-0.8,0.1-2.1 c-0.2-5.4-4.5-8.3-8.8-8.3c-3.1,0-9.1,1.8-9.1,8.7C164.1,26.3,169.9,28.2,173.2,28.2z M173.2,14.7c2.3,0,3.8,1.7,4,3.2h-8.4 C168.9,16.2,170.5,14.7,173.2,14.7z"></path> </g> </svg> 